<?xml version="1.0" encoding="utf-8"?>
<?xml-stylesheet type="text/xsl" href="rss1.xsl"?>
<rss version="2.0" xmlns:atom="http://www.w3.org/2005/Atom" xmlns:content="http://purl.org/rss/1.0/modules/content/" xmlns:dc="http://purl.org/dc/elements/1.1/" xmlns:media="http://search.yahoo.com/mrss/">
<channel>
 <title>Getty</title>
 <link>http://www.gettyimg.com/</link>
 <atom:link href="http://www.gettyimg.com/" rel="self" type="application/rss+xml" />

 
                <item>
                <title><![CDATA[【News &amp; Announcements】Symptoms of the sickness encompass feeling thirsty]]></title>
                <link><![CDATA[https://sharemania.us/threads/symptoms-of-the-sickness-encompass-feeling-thirsty.223525/]]></link>
                <description><![CDATA[<article>
<blockquote class="messageText SelectQuoteContainer ugc baseHtml">
In the years when you consider that its debut, the system has helped tens of hundreds of individuals at some point of the US, and its benefits have inspired many supporters.
<div class="messageTextEndMarker">&nbsp;</div>
</blockquote>
</article>]]></description>
                <author><![CDATA[hoopdoolholl]]></author>
                </item>

                
                <item>
                <title><![CDATA[【Apple Music】WEB-RiP - 50 Cent - Just A Lil Bit (1080p)]]></title>
                <link><![CDATA[https://sharemania.us/threads/50-cent-just-a-lil-bit-1080p.223523/]]></link>
                <description><![CDATA[<article>
<blockquote class="messageText SelectQuoteContainer ugc baseHtml">
<img src="https://i.imgur.com/rwMDFgX.jpg" class="bbCodeImage LbImage" alt="[​IMG]" data-url="https://i.imgur.com/rwMDFgX.jpg" style=""><br>
<br>
<div class="bbCodeBlock bbCodeCode">
<div class="type">Code:</div>
<pre>General
Complete name                  : C:\Users\asus\Desktop\50 Cent - Just A Lil Bit.mp4
Format                         : MPEG-4
Format profile                 : Base Media
Codec ID                       : isom (isom/iso2/avc1/mp41)
File size                      : 211 MiB
Duration                       : 4 min 17 s
Overall bit rate               : 6 862 kb/s
Frame rate                     : 23.976 FPS
Movie name                     : Just a Lil Bit
Performer                      : 50 Cent
Genre                          : Hip-Hop/Rap
ContentType                    : Music Video
Recorded date                  : 2005-01-01 08:00:00 UTC
Writing application            : Lavf57.29.101
Copyright                      : ℗ 2005 Shady Records/Aftermath Records/Interscope Records

Video
ID                             : 1
Format                         : AVC
Format/Info                    : Advanced Video Codec
Format profile                 : High@L4
Format settings                : CABAC / 5 Ref Frames
Format settings, CABAC         : Yes
Format settings, Reference fra : 5 frames
Codec ID                       : avc1
Codec ID/Info                  : Advanced Video Coding
Duration                       : 4 min 17 s
Bit rate                       : 6 587 kb/s
Width                          : 1 432 pixels
Height                         : 1 080 pixels
Display aspect ratio           : 4:3
Frame rate mode                : Constant
Frame rate                     : 23.976 (24000/1001) FPS
Color space                    : YUV
Chroma subsampling             : 4:2:0
Bit depth                      : 8 bits
Scan type                      : Progressive
Bits/(Pixel*Frame)             : 0.178
Stream size                    : 202 MiB (96%)
Language                       : English
Color range                    : Limited
Color primaries                : BT.709
Transfer characteristics       : BT.709
Matrix coefficients            : BT.709
Codec configuration box        : avcC

Audio
ID                             : 2
Format                         : AAC LC
Format/Info                    : Advanced Audio Codec Low Complexity
Codec ID                       : mp4a-40-2
Duration                       : 4 min 17 s
Bit rate mode                  : Constant
Bit rate                       : 271 kb/s
Channel(s)                     : 2 channels
Channel layout                 : L R
Sampling rate                  : 48.0 kHz
Frame rate                     : 46.875 FPS (1024 SPF)
Compression mode               : Lossy
Stream size                    : 8.32 MiB (4%)
Default                        : Yes
Alternate group                : 1

</pre>
</div>
<div class="bbCodeBlock bbCodeVfcHH HiddenContent">
<div class="attribution type">Hidden Content:</div>
<blockquote>You must either reply or click 'Like' to see the hidden information contained here.</blockquote>
</div>
<div class="messageTextEndMarker">&nbsp;</div>
</blockquote>
</article>]]></description>
                <author><![CDATA[vitalya3]]></author>
                </item>

                
                <item>
                <title><![CDATA[【Apple Music】WEB-RiP - DJ Sava feat. Alina Eremia &amp; What's UP - Dulce Amar (1080p)]]></title>
                <link><![CDATA[https://sharemania.us/threads/dj-sava-feat-alina-eremia-whats-up-dulce-amar-1080p.223526/]]></link>
                <description><![CDATA[<article>
<blockquote class="messageText SelectQuoteContainer ugc baseHtml">
<img src="https://i.imgur.com/gdmcf5i.jpg" class="bbCodeImage LbImage" alt="[​IMG]" data-url="https://i.imgur.com/gdmcf5i.jpg" style=""><br>
<br>
<div class="bbCodeBlock bbCodeCode">
<div class="type">Code:</div>
<pre>General
Complete name                  : C:\Users\asus\Desktop\DJ Sava feat. Alina Eremia &amp; What's UP - Dulce Amar.mp4
Format                         : MPEG-4
Format profile                 : Base Media
Codec ID                       : isom (isom/iso2/avc1/mp41)
File size                      : 259 MiB
Duration                       : 3 min 32 s
Overall bit rate               : 10.2 Mb/s
Frame rate                     : 25.000 FPS
Movie name                     : Dulce Amar (feat. Alina Eremia &amp; What's Up)
Performer                      : Dj Sava
Genre                          : Dance
ContentType                    : Music Video
Recorded date                  : 2021-09-02 07:00:00 UTC
Writing application            : Lavf57.29.101
Copyright                      : ℗ 2016 Cat Music / Mediapro Music

Video
ID                             : 1
Format                         : AVC
Format/Info                    : Advanced Video Codec
Format profile                 : High@L4
Format settings                : CABAC / 5 Ref Frames
Format settings, CABAC         : Yes
Format settings, Reference fra : 5 frames
Codec ID                       : avc1
Codec ID/Info                  : Advanced Video Coding
Duration                       : 3 min 32 s
Bit rate                       : 9 965 kb/s
Width                          : 1 920 pixels
Height                         : 816 pixels
Display aspect ratio           : 2.35:1
Frame rate mode                : Constant
Frame rate                     : 25.000 FPS
Color space                    : YUV
Chroma subsampling             : 4:2:0
Bit depth                      : 8 bits
Scan type                      : Progressive
Bits/(Pixel*Frame)             : 0.254
Stream size                    : 252 MiB (97%)
Color range                    : Limited
Color primaries                : BT.709
Transfer characteristics       : BT.709
Matrix coefficients            : BT.709
Codec configuration box        : avcC

Audio
ID                             : 2
Format                         : AAC LC
Format/Info                    : Advanced Audio Codec Low Complexity
Codec ID                       : mp4a-40-2
Duration                       : 3 min 32 s
Bit rate mode                  : Constant
Bit rate                       : 265 kb/s
Channel(s)                     : 2 channels
Channel layout                 : L R
Sampling rate                  : 48.0 kHz
Frame rate                     : 46.875 FPS (1024 SPF)
Compression mode               : Lossy
Stream size                    : 6.66 MiB (3%)
Default                        : Yes
Alternate group                : 1

</pre>
</div>
<div class="bbCodeBlock bbCodeVfcHH HiddenContent">
<div class="attribution type">Hidden Content:</div>
<blockquote>You must either reply or click 'Like' to see the hidden information contained here.</blockquote>
</div>
<div class="messageTextEndMarker">&nbsp;</div>
</blockquote>
</article>]]></description>
                <author><![CDATA[vitalya3]]></author>
                </item>

                
                <item>
                <title><![CDATA[【Singers/Musicians】Miley Cyrus - Vijat Mohindra #1 2022 Photoshoot x10]]></title>
                <link><![CDATA[https://sharemania.us/threads/miley-cyrus-vijat-mohindra-1-2022-photoshoot-x10.223524/]]></link>
                <description><![CDATA[<article>
<blockquote class="messageText SelectQuoteContainer ugc baseHtml">
<a href="https://www.imagebam.com/view/MEM9KYN" target="_blank" class="externalLink" rel="nofollow"></a><a href="https://www.imagebam.com/view/MEM9KYN" target="_blank" class="externalLink" rel="nofollow"></a><br>
<a href="https://www.imagebam.com/view/MEM9KXI" target="_blank" class="externalLink" rel="nofollow"><img src="https://thumbs4.imagebam.com/bc/6b/0a/MEM9KXI_t.jpg" class="bbCodeImage LbImage" alt="[​IMG]" data-url="https://thumbs4.imagebam.com/bc/6b/0a/MEM9KXI_t.jpg"></a> <a href="https://www.imagebam.com/view/MEM9KXM" target="_blank" class="externalLink" rel="nofollow"><img src="https://thumbs4.imagebam.com/23/9e/a1/MEM9KXM_t.jpg" class="bbCodeImage LbImage" alt="[​IMG]" data-url="https://thumbs4.imagebam.com/23/9e/a1/MEM9KXM_t.jpg"></a> <a href="https://www.imagebam.com/view/MEM9KXS" target="_blank" class="externalLink" rel="nofollow"><img src="https://thumbs4.imagebam.com/87/5e/f4/MEM9KXS_t.jpg" class="bbCodeImage LbImage" alt="[​IMG]" data-url="https://thumbs4.imagebam.com/87/5e/f4/MEM9KXS_t.jpg"></a> <a href="https://www.imagebam.com/view/MEM9KXU" target="_blank" class="externalLink" rel="nofollow"><img src="https://thumbs4.imagebam.com/97/e2/01/MEM9KXU_t.jpg" class="bbCodeImage LbImage" alt="[​IMG]" data-url="https://thumbs4.imagebam.com/97/e2/01/MEM9KXU_t.jpg"></a> <a href="https://www.imagebam.com/view/MEM9KXY" target="_blank" class="externalLink" rel="nofollow"><img src="https://thumbs4.imagebam.com/c3/c6/ad/MEM9KXY_t.jpg" class="bbCodeImage LbImage" alt="[​IMG]" data-url="https://thumbs4.imagebam.com/c3/c6/ad/MEM9KXY_t.jpg"></a> <a href="https://www.imagebam.com/view/MEM9KY7" target="_blank" class="externalLink" rel="nofollow"><img src="https://thumbs4.imagebam.com/6f/ea/b8/MEM9KY7_t.jpg" class="bbCodeImage LbImage" alt="[​IMG]" data-url="https://thumbs4.imagebam.com/6f/ea/b8/MEM9KY7_t.jpg"></a> <a href="https://www.imagebam.com/view/MEM9KYE" target="_blank" class="externalLink" rel="nofollow"><img src="https://thumbs4.imagebam.com/aa/ca/1f/MEM9KYE_t.jpg" class="bbCodeImage LbImage" alt="[​IMG]" data-url="https://thumbs4.imagebam.com/aa/ca/1f/MEM9KYE_t.jpg"></a> <a href="https://www.imagebam.com/view/MEM9KYG" target="_blank" class="externalLink" rel="nofollow"><img src="https://thumbs4.imagebam.com/92/d5/0e/MEM9KYG_t.jpg" class="bbCodeImage LbImage" alt="[​IMG]" data-url="https://thumbs4.imagebam.com/92/d5/0e/MEM9KYG_t.jpg"></a> <a href="https://www.imagebam.com/view/MEM9KYK" target="_blank" class="externalLink" rel="nofollow"><img src="https://thumbs4.imagebam.com/cd/5f/22/MEM9KYK_t.jpg" class="bbCodeImage LbImage" alt="[​IMG]" data-url="https://thumbs4.imagebam.com/cd/5f/22/MEM9KYK_t.jpg"></a> <a href="https://www.imagebam.com/view/MEM9KYN" target="_blank" class="externalLink" rel="nofollow"><img src="https://thumbs4.imagebam.com/d4/fe/9c/MEM9KYN_t.jpg" class="bbCodeImage LbImage" alt="[​IMG]" data-url="https://thumbs4.imagebam.com/d4/fe/9c/MEM9KYN_t.jpg"></a>
<div class="messageTextEndMarker">&nbsp;</div>
</blockquote>
</article>]]></description>
                <author><![CDATA[mcfan08]]></author>
                </item>

                </channel></rss>